<!DOCTYPE svg PUBLIC "-//W3C//DTD SVG 1.1//EN" "http://www.w3.org/Graphics/SVG/1.1/DTD/svg11.dtd">
<!-- Uploaded to: SVG Repo, www.svgrepo.com, Transformed by: SVG Repo Mixer Tools -->
<svg version="1.1" id="Layer_1" xmlns="http://www.w3.org/2000/svg" xmlns:xlink="http://www.w3.org/1999/xlink" viewBox="0 0 512 512" xml:space="preserve" width="800px" height="800px" fill="#000000">
<g id="SVGRepo_bgCarrier" stroke-width="0"/>
<g id="SVGRepo_tracerCarrier" stroke-linecap="round" stroke-linejoin="round"/>
<g id="SVGRepo_iconCarrier"> <path style="fill:#fddba5;" d="M447.072,365.97l-17.155-17.156c-4.159-4.161-9.611-6.239-15.063-6.239 c-5.45,0-10.904,2.079-15.062,6.239l-80.266,80.266H191.93v-11.121h53.563c11.717,0,21.303-9.586,21.303-21.302v-17.043 c0-11.715-9.585-21.303-21.303-21.303H123.489v145.331h218.095c6.07,0,11.851-2.588,15.893-7.116l90.425-101.304 C455.427,386.793,455.062,373.959,447.072,365.97z"/> <g style="opacity:0.1;"> <rect x="123.486" y="358.306" width="26.645" height="145.335"/> </g> <path style="fill:#fd6749;" d="M255.75,340.789c-5.645,0-11.055-2.242-15.048-6.236L93.881,187.603 c-20.753-20.752-32.186-48.352-32.186-77.706c0-29.355,11.432-56.953,32.188-77.71C114.639,11.431,142.237,0,171.593,0 c29.354,0,56.951,11.431,77.707,32.188l6.45,6.451l6.451-6.45C282.958,11.431,310.554,0,339.911,0 c29.355,0,56.952,11.431,77.709,32.188c20.756,20.757,32.187,48.354,32.187,77.71c0,29.354-11.431,56.952-32.187,77.709 L270.799,334.553C266.809,338.547,261.395,340.789,255.75,340.789z"/> <g style="opacity:0.1;"> <path d="M128.224,187.603c-20.753-20.752-32.187-48.352-32.187-77.706c0-29.355,11.431-56.953,32.189-77.71 c16.65-16.651,37.706-27.294,60.538-30.855C183.134,0.455,177.4,0,171.593,0c-29.356,0-56.954,11.431-77.71,32.188 c-20.757,20.757-32.188,48.354-32.188,77.71c0,29.354,11.433,56.954,32.186,77.706l146.822,146.949 c3.992,3.994,9.403,6.236,15.048,6.236c5.645,0,11.059-2.242,15.049-6.236l2.123-2.124L128.224,187.603z"/> </g> <path style="fill:#69f284;" d="M130.453,501.348c0,5.858-4.791,10.652-10.65,10.652H64.415c-5.858,0-10.651-4.794-10.651-10.652 V358.615c0-5.858,4.793-10.652,10.651-10.652h55.389c5.858,0,10.65,4.794,10.65,10.652V501.348z"/> <path style="fill:#FFED84;" d="M401.068,102.419c-16.654,11.225-26.674,21.244-37.898,37.897c-1.357,2.014-4.337,2.014-5.695,0 c-11.225-16.654-21.243-26.671-37.897-37.897c-2.014-1.357-2.014-4.337,0-5.695c16.654-11.223,26.672-21.242,37.896-37.897 c1.357-2.014,4.337-2.014,5.695,0c11.225,16.655,21.245,26.673,37.898,37.896C403.081,98.081,403.082,101.061,401.068,102.419z"/> <path style="fill:#FFC529;" d="M424.112,64.415l-28.244-28.24c-1.346-1.346-1.346-3.529,0-4.874l28.241-28.24 c1.346-1.346,3.529-1.346,4.874,0l28.243,28.24c1.346,1.346,1.346,3.529,0,4.874l-28.24,28.24 C427.64,65.762,425.457,65.762,424.112,64.415z"/> <g> <path style="fill:#8EC1A2;" d="M97.846,365.444H53.764v16.169h44.081c4.465,0,8.084-3.62,8.084-8.084 C105.931,369.064,102.311,365.444,97.846,365.444z"/> <path style="fill:#8EC1A2;" d="M97.846,393.139H53.764v16.169h44.081c4.465,0,8.084-3.62,8.084-8.084 C105.931,396.758,102.311,393.139,97.846,393.139z"/> <path style="fill:#8EC1A2;" d="M97.846,420.833H53.764v16.169h44.081c4.465,0,8.084-3.62,8.084-8.084 C105.931,424.451,102.311,420.833,97.846,420.833z"/> <path style="fill:#8EC1A2;" d="M97.846,448.527H53.764v16.169h44.081c4.465,0,8.084-3.62,8.084-8.083 C105.931,452.146,102.311,448.527,97.846,448.527z"/> <path style="fill:#8EC1A2;" d="M97.846,476.221H53.764v16.169h44.081c4.465,0,8.084-3.62,8.084-8.084 C105.931,479.84,102.311,476.221,97.846,476.221z"/> </g> <path style="opacity:0.1;enable-background:new ;" d="M75.628,501.348V358.615c0-5.858,4.793-10.652,10.651-10.652H64.415 c-5.858,0-10.651,4.794-10.651,10.652v142.733c0,5.858,4.793,10.652,10.651,10.652h21.863C80.421,512,75.628,507.206,75.628,501.348 z"/> </g>
</svg>